<?xml version="1.0" encoding="UTF-8"?>
<!DOCTYPE svg PUBLIC "-//W3C//DTD SVG 1.1//EN" "http://www.w3.org/Graphics/SVG/1.1/DTD/svg11.dtd">
<!-- Creator: CorelDRAW -->
<svg xmlns="http://www.w3.org/2000/svg" xml:space="preserve" width="49.324mm" height="15.176mm" version="1.1" style="shape-rendering:geometricPrecision; text-rendering:geometricPrecision; image-rendering:optimizeQuality; fill-rule:evenodd; clip-rule:evenodd"
viewBox="0 0 4932.4 1517.6"
 xmlns:xlink="http://www.w3.org/1999/xlink"
 xmlns:xodm="http://www.corel.com/coreldraw/odm/2003">
 <defs>
  <style type="text/css">
   <![CDATA[
    .fil1 {fill:#C40202}
    .fil3 {fill:white}
    .fil4 {fill:#C40202;fill-rule:nonzero}
    .fil2 {fill:#FEFEFE;fill-rule:nonzero}
    .fil0 {fill:white;fill-rule:nonzero}
   ]]>
  </style>
 </defs>
 <g id="Layer_x0020_1">
  <metadata id="CorelCorpID_0Corel-Layer"/>
  <g id="_3053768416336">
   <g>
    <path class="fil0" d="M1182.17 40.79l-829.73 0 0 -40.24 829.73 0 0 0 0 40.24zm194.78 142.31l-42.92 0 0 0 -0.21 -7.32 -0.58 -7.22 -0.97 -7.1 -1.34 -6.98 -1.69 -6.88 -2.05 -6.73 -2.39 -6.6 -2.72 -6.44 -3.04 -6.29 -3.37 -6.14 -3.67 -5.97 -3.96 -5.79 -4.23 -5.57 -4.52 -5.38 -4.79 -5.17 -5.05 -4.97 -5.29 -4.72 -5.51 -4.49 -5.74 -4.22 -5.97 -3.99 -6.16 -3.71 -6.36 -3.43 -6.54 -3.14 -6.73 -2.86 -6.88 -2.56 -7.03 -2.23 -7.2 -1.92 -7.33 -1.6 -7.45 -1.25 -7.59 -0.91 -7.69 -0.55 -7.81 -0.18 0 -40.24 9.99 0.24 9.87 0.71 9.73 1.17 9.59 1.61 9.41 2.04 9.24 2.46 9.07 2.89 8.84 3.28 8.63 3.66 8.4 4.04 8.16 4.41 7.9 4.75 7.63 5.09 7.36 5.42 7.07 5.75 6.75 6.04 6.45 6.33 6.11 6.61 5.8 6.9 5.45 7.17 5.06 7.41 4.69 7.63 4.31 7.86 3.92 8.09 3.5 8.3 3.07 8.48 2.63 8.67 2.19 8.82 1.72 9 1.23 9.12 0.76 9.24 0.25 9.36 0 0zm-42.92 777.6l0 -777.6 42.92 0 0 777.6 0 0 -42.92 0zm-151.86 182.55l0 -40.24 0 0 7.81 -0.18 7.69 -0.55 7.59 -0.91 7.45 -1.25 7.33 -1.6 7.2 -1.92 7.03 -2.23 6.88 -2.56 6.73 -2.86 6.54 -3.14 6.36 -3.43 6.16 -3.71 5.97 -3.99 5.74 -4.22 5.51 -4.49 5.29 -4.72 5.05 -4.97 4.79 -5.17 4.52 -5.38 4.23 -5.57 3.96 -5.79 3.67 -5.97 3.37 -6.14 3.04 -6.29 2.72 -6.44 2.39 -6.6 2.05 -6.73 1.69 -6.88 1.34 -6.98 0.97 -7.1 0.58 -7.22 0.21 -7.32 42.92 0 -0.25 9.36 -0.76 9.24 -1.23 9.12 -1.72 9 -2.19 8.82 -2.63 8.67 -3.07 8.48 -3.5 8.3 -3.92 8.09 -4.31 7.86 -4.69 7.63 -5.06 7.41 -5.45 7.17 -5.8 6.9 -6.11 6.61 -6.45 6.33 -6.75 6.04 -7.07 5.75 -7.36 5.42 -7.63 5.09 -7.9 4.75 -8.16 4.41 -8.4 4.04 -8.63 3.66 -8.84 3.28 -9.07 2.89 -9.24 2.46 -9.41 2.04 -9.59 1.61 -9.73 1.17 -9.87 0.71 -9.99 0.24 0 0zm-829.73 -40.24l829.73 0 0 40.24 -829.73 0 0 0 0 -40.24zm-194.78 -142.31l42.92 0 0 0 0.21 7.32 0.58 7.22 0.97 7.1 1.34 6.98 1.69 6.88 2.05 6.73 2.39 6.6 2.72 6.44 3.04 6.29 3.37 6.14 3.67 5.97 3.96 5.79 4.24 5.58 4.5 5.37 4.8 5.17 5.04 4.97 5.29 4.72 5.52 4.49 5.74 4.22 5.97 3.99 6.16 3.71 6.36 3.43 6.54 3.14 6.72 2.86 6.89 2.56 7.04 2.24 7.18 1.91 7.33 1.59 7.46 1.26 7.59 0.91 7.69 0.55 7.81 0.18 0 40.24 -9.99 -0.24 -9.87 -0.71 -9.73 -1.17 -9.58 -1.6 -9.43 -2.05 -9.24 -2.47 -9.06 -2.88 -8.85 -3.28 -8.62 -3.66 -8.4 -4.04 -8.16 -4.41 -7.9 -4.75 -7.63 -5.09 -7.36 -5.42 -7.06 -5.75 -6.77 -6.04 -6.44 -6.33 -6.12 -6.61 -5.8 -6.91 -5.44 -7.16 -5.06 -7.41 -4.69 -7.63 -4.31 -7.86 -3.92 -8.09 -3.5 -8.3 -3.07 -8.48 -2.63 -8.67 -2.19 -8.82 -1.72 -9 -1.23 -9.12 -0.76 -9.24 -0.25 -9.36 0 0zm42.92 -777.6l0 777.6 -42.92 0 0 -777.6 0 0 42.92 0zm151.86 -182.55l0 40.24 0 0 -7.81 0.18 -7.69 0.55 -7.59 0.91 -7.46 1.26 -7.33 1.59 -7.18 1.91 -7.04 2.24 -6.89 2.56 -6.72 2.86 -6.54 3.14 -6.36 3.43 -6.16 3.71 -5.97 3.99 -5.74 4.22 -5.52 4.49 -5.29 4.72 -5.04 4.97 -4.8 5.17 -4.5 5.37 -4.24 5.58 -3.96 5.79 -3.67 5.97 -3.37 6.14 -3.04 6.29 -2.72 6.44 -2.39 6.6 -2.05 6.73 -1.69 6.88 -1.34 6.98 -0.97 7.1 -0.58 7.22 -0.21 7.32 -42.92 0 0.25 -9.36 0.76 -9.24 1.23 -9.12 1.72 -9 2.19 -8.82 2.63 -8.67 3.07 -8.48 3.5 -8.3 3.92 -8.09 4.31 -7.86 4.69 -7.63 5.06 -7.41 5.44 -7.16 5.8 -6.91 6.12 -6.61 6.44 -6.33 6.77 -6.04 7.06 -5.75 7.36 -5.42 7.63 -5.09 7.9 -4.75 8.16 -4.41 8.4 -4.04 8.62 -3.66 8.85 -3.28 9.06 -2.88 9.24 -2.47 9.43 -2.05 9.58 -1.6 9.73 -1.17 9.87 -0.71 9.99 -0.24 0 0z"/>
    <path id="_1" class="fil1" d="M352.44 20.67l829.73 0c95.48,0 173.32,72.95 173.32,162.43l0 777.6c0,89.48 -77.84,162.43 -173.32,162.43l-829.73 0c-95.49,0 -173.32,-72.95 -173.32,-162.43l0 -777.6c0,-89.48 77.83,-162.43 173.32,-162.43z"/>
   </g>
   <g>
    <path class="fil2" d="M1182.18 123.52l-829.74 0 0 -53.64 829.74 0 0 0 0 53.64zm120.81 59.58l-57.24 0 0 0 -0.08 -3.06 -0.25 -3 -0.41 -2.99 -0.55 -2.9 -0.72 -2.86 -0.85 -2.81 -1 -2.76 -1.14 -2.69 -1.27 -2.62 -1.42 -2.59 -1.52 -2.48 -1.65 -2.4 -1.81 -2.38 -1.91 -2.28 -1.99 -2.15 -2.13 -2.09 -2.23 -2 -2.3 -1.86 -2.4 -1.78 -2.54 -1.68 -2.58 -1.56 -2.67 -1.44 -2.73 -1.33 -2.81 -1.18 -2.88 -1.08 -2.92 -0.93 -3.01 -0.8 -3.04 -0.67 -3.1 -0.52 -3.19 -0.38 -3.2 -0.23 -3.27 -0.08 0 -53.64 6.19 0.14 6.12 0.45 6.01 0.72 5.96 1 5.86 1.27 5.73 1.54 5.64 1.79 5.48 2.04 5.35 2.28 5.21 2.51 5.05 2.72 4.9 2.96 4.7 3.14 4.58 3.36 4.4 3.58 4.17 3.74 3.99 3.91 3.81 4.13 3.57 4.26 3.35 4.4 3.17 4.6 2.92 4.76 2.66 4.85 2.45 5.04 2.16 5.15 1.92 5.26 1.63 5.37 1.36 5.48 1.07 5.6 0.77 5.63 0.47 5.74 0.16 5.8 0 0zm-57.24 777.6l0 -777.6 57.24 0 0 777.6 0 0 -57.24 0zm-63.57 113.22l0 -53.64 0 0 3.27 -0.08 3.2 -0.23 3.19 -0.38 3.1 -0.52 3.04 -0.67 3.01 -0.8 2.92 -0.93 2.88 -1.08 2.81 -1.18 2.73 -1.33 2.67 -1.44 2.58 -1.56 2.54 -1.68 2.4 -1.78 2.3 -1.86 2.23 -2 2.13 -2.09 1.99 -2.15 1.91 -2.28 1.8 -2.37 1.66 -2.42 1.52 -2.47 1.42 -2.6 1.28 -2.62 1.13 -2.68 1 -2.76 0.85 -2.81 0.72 -2.86 0.55 -2.9 0.41 -2.99 0.25 -3 0.08 -3.06 57.24 0 -0.16 5.8 -0.47 5.74 -0.77 5.63 -1.07 5.6 -1.36 5.48 -1.63 5.37 -1.92 5.26 -2.17 5.16 -2.44 5.02 -2.66 4.86 -2.92 4.75 -3.16 4.6 -3.36 4.41 -3.57 4.26 -3.81 4.13 -3.99 3.91 -4.17 3.74 -4.4 3.58 -4.58 3.36 -4.7 3.14 -4.9 2.96 -5.05 2.72 -5.21 2.51 -5.35 2.28 -5.48 2.04 -5.64 1.79 -5.73 1.54 -5.86 1.27 -5.96 1 -6.01 0.72 -6.12 0.45 -6.19 0.14 0 0zm-829.74 -53.64l829.74 0 0 53.64 -829.74 0 0 0 0 -53.64zm-120.81 -59.58l57.24 0 0 0 0.08 3.06 0.25 3 0.41 2.99 0.55 2.9 0.72 2.86 0.85 2.81 1 2.76 1.13 2.68 1.28 2.62 1.42 2.6 1.52 2.47 1.66 2.42 1.8 2.37 1.91 2.28 1.99 2.15 2.13 2.09 2.23 2 2.3 1.86 2.4 1.78 2.54 1.68 2.58 1.56 2.67 1.44 2.73 1.33 2.81 1.18 2.88 1.08 2.92 0.93 3.01 0.8 3.04 0.67 3.1 0.52 3.19 0.38 3.2 0.23 3.27 0.08 0 53.64 -6.19 -0.14 -6.12 -0.45 -6.01 -0.72 -5.96 -1 -5.86 -1.27 -5.73 -1.54 -5.64 -1.79 -5.48 -2.04 -5.35 -2.28 -5.21 -2.51 -5.05 -2.72 -4.9 -2.96 -4.7 -3.14 -4.58 -3.36 -4.4 -3.58 -4.17 -3.74 -3.99 -3.91 -3.81 -4.13 -3.57 -4.26 -3.36 -4.41 -3.16 -4.6 -2.92 -4.75 -2.66 -4.86 -2.44 -5.02 -2.17 -5.16 -1.92 -5.26 -1.63 -5.37 -1.36 -5.48 -1.07 -5.6 -0.77 -5.63 -0.47 -5.74 -0.16 -5.8 0 0zm57.24 -777.6l0 777.6 -57.24 0 0 -777.6 0 0 57.24 0zm63.57 -113.22l0 53.64 0 0 -3.27 0.08 -3.2 0.23 -3.19 0.38 -3.1 0.52 -3.04 0.67 -3.01 0.8 -2.92 0.93 -2.88 1.08 -2.81 1.18 -2.73 1.33 -2.67 1.44 -2.58 1.56 -2.54 1.68 -2.4 1.78 -2.3 1.86 -2.23 2 -2.13 2.09 -1.99 2.15 -1.91 2.28 -1.81 2.38 -1.65 2.4 -1.52 2.48 -1.42 2.59 -1.27 2.62 -1.14 2.69 -1 2.76 -0.85 2.81 -0.72 2.86 -0.55 2.9 -0.41 2.99 -0.25 3 -0.08 3.06 -57.24 0 0.16 -5.8 0.47 -5.74 0.77 -5.63 1.07 -5.6 1.36 -5.48 1.63 -5.37 1.92 -5.26 2.16 -5.15 2.45 -5.04 2.66 -4.85 2.92 -4.76 3.17 -4.6 3.35 -4.4 3.57 -4.26 3.81 -4.13 3.99 -3.91 4.17 -3.74 4.4 -3.58 4.58 -3.36 4.7 -3.14 4.9 -2.96 5.05 -2.72 5.21 -2.51 5.35 -2.28 5.48 -2.04 5.64 -1.79 5.73 -1.54 5.86 -1.27 5.96 -1 6.01 -0.72 6.12 -0.45 6.19 -0.14 0 0z"/>
    <path id="_1_0" class="fil1" d="M352.44 96.7l829.74 0c50.71,0 92.19,38.87 92.19,86.4l0 777.6c0,47.52 -41.48,86.4 -92.19,86.4l-829.74 0c-50.71,0 -92.19,-38.88 -92.19,-86.4l0 -777.6c0,-47.53 41.48,-86.4 92.19,-86.4z"/>
   </g>
   <g id="_3053761627296">
    <path class="fil3" d="M581.95 746.46l212.17 -328.85c46.66,-72.33 145.9,-98.52 224.02,-56.25l0 0c78.11,42.26 106.69,137.61 60.02,209.95l-212.16 328.85c-46.66,72.33 -145.91,98.52 -224.02,56.25l0 0c-78.11,-42.26 -106.7,-137.61 -60.03,-209.95z"/>
    <path class="fil1" d="M576.52 167.15l332.73 7.77c97.68,2.28 178.54,75.03 178.54,167.67 0,91.74 -80.28,169.97 -179.29,167.66l-332.73 -7.77c-97.68,-2.28 -178.54,-75.03 -178.54,-167.66 0,-91.74 80.28,-169.98 179.29,-167.67z"/>
    <path class="fil3" d="M576.15 181.13l332.73 7.76c90.17,2.11 163.99,69.16 163.99,153.69l0 0c0,84.54 -73.82,155.8 -163.99,153.7l-332.73 -7.77c-90.17,-2.1 -164,-69.16 -164,-153.69l0 0c0,-84.53 73.83,-155.8 164,-153.69z"/>
    <path class="fil1" d="M1048.13 450.02l-202.26 328.3c-29.26,47.51 -94.81,63.97 -145.5,36.54 -50.69,-27.43 -68.25,-88.85 -38.99,-136.36l114.18 -185.34 0 0.01 127.46 0 0 -88.08 -73.2 0 34.04 -55.26c0.49,-0.78 1,-1.55 1.49,-2.33 41.58,-65.51 107.25,-86.71 183.11,-61.89l1.83 0.59 1.61 1c12.25,7.55 22.42,17.3 29.01,29.67 22.86,42.92 -7.65,97.26 -32.78,133.15z"/>
    <path class="fil3" d="M674.92 685.83l202.48 -328.67c0.45,-0.74 0.92,-1.46 1.39,-2.17 40.46,-63.77 100.93,-76.35 164.52,-55.55 42.7,26.33 39.87,73.95 -8.5,142.88l-202.48 328.68c-24.99,40.56 -80.85,54.59 -124.14,31.17l0 0c-43.29,-23.42 -58.26,-75.78 -33.27,-116.34z"/>
    <path class="fil1" d="M980.86 435.95l-403.83 0c-58.24,0 -105.84,-44.61 -105.84,-99.19 0,-54.58 47.6,-99.19 105.84,-99.19l404.96 0c0.97,0 1.93,0.03 2.89,0.04 40.82,0.49 79.66,11.57 108.43,39.81 31.11,30.54 42.51,73.36 43.92,114.51 1.69,49.29 -10.23,100.5 -27.76,146.77l-21.14 55.8 -7.81 -58.76c-7.58,-56.98 -38.39,-90.86 -99.66,-99.79z"/>
    <path class="fil3" d="M577.03 251.59l404.96 0c0.9,0 1.8,0.02 2.69,0.04 143.32,1.73 164.43,140.52 110.69,282.38 -8.69,-65.35 -46.48,-102.71 -113.38,-112.08l-404.96 0c-49.98,0 -90.88,-38.33 -90.88,-85.17l0 0c0,-46.84 40.9,-85.17 90.88,-85.17z"/>
   </g>
   <g id="_3053761628352">
    <path class="fil1" d="M2003.85 229.98l-132.29 0 -84.04 388.08 -102.34 0 84.04 -388.08 -121.48 0 18.31 -85.15 356.11 0 -18.31 85.15zm409.37 288.19c-4.45,21.29 -9.86,38.35 -16.23,51.17 -6.39,12.83 -14.7,22.93 -24.96,30.29 -10.26,7.37 -23.3,12.28 -39.11,14.74 -15.81,2.46 -35.64,3.69 -59.48,3.69l-178.06 0c-20.52,0 -37.44,-0.96 -50.76,-2.87 -13.3,-1.91 -23.84,-4.91 -31.61,-9 -7.77,-4.1 -13.18,-9.69 -16.23,-16.79 -3.05,-7.1 -4.57,-16.1 -4.57,-27.02 0,-12.55 1.94,-27.29 5.82,-44.21l59.08 -271.82c4.99,-21.28 10.67,-38.47 17.05,-51.58 6.38,-13.1 14.7,-23.2 24.96,-30.29 10.26,-7.1 23.3,-11.87 39.11,-14.33 15.8,-2.45 35.36,-3.69 58.66,-3.69l178.05 0c38.28,0 65.03,3.83 80.29,11.47 15.25,7.64 22.88,22.38 22.88,44.21 0,12.55 -1.94,27.29 -5.83,44.21l-59.06 271.82zm-94.02 -34.38l44.09 -203.05c2.22,-10.92 3.33,-19.92 3.33,-27.01 0,-9.29 -3.19,-15.29 -9.57,-18.02 -6.38,-2.73 -19.28,-4.1 -38.69,-4.1l-100.68 0c-11.64,0 -21.21,0.41 -28.7,1.24 -7.48,0.82 -13.59,2.86 -18.3,6.13 -4.72,3.28 -8.46,8.19 -11.24,14.75 -2.77,6.54 -5.27,15.54 -7.49,27.01l-44.09 203.05c-2.77,13.64 -4.16,22.65 -4.16,27.02 0,9.27 3.19,15.28 9.56,18.01 6.39,2.73 19.28,4.09 38.69,4.09l101.51 0c11.65,0 21.22,-0.41 28.71,-1.23 7.48,-0.81 13.59,-2.86 18.3,-6.14 4.72,-3.28 8.33,-8.19 10.82,-14.73 2.5,-6.56 5.13,-15.56 7.91,-27.02zm514.19 134.27l-366.92 0 72.37 -337.32 102.35 0 -12.48 58.14 129.79 0 -18.3 85.13 -129.8 0 -23.29 108.9 264.59 0 -18.31 85.15zm83.2 -386.45l-366.93 0 18.31 -84.32 366.93 0 -18.31 84.32zm367.76 286.56c-4.45,21.29 -9.84,38.35 -16.23,51.17 -6.37,12.83 -14.7,22.93 -24.96,30.29 -10.26,7.37 -23.3,12.28 -39.11,14.74 -15.81,2.46 -35.64,3.69 -59.48,3.69l-270.41 0 73.22 -337.32 102.34 0 -54.92 252.17 129.79 0c11.66,0 21.22,-0.41 28.71,-1.23 7.49,-0.81 13.59,-2.86 18.31,-6.14 4.71,-3.28 8.32,-8.19 10.82,-14.73 2.49,-6.56 5.13,-15.56 7.9,-27.02l44.09 -203.05c1.12,-6.01 2.08,-11.19 2.92,-15.55 0.83,-4.37 1.25,-7.92 1.25,-10.65 0,-9.28 -3.19,-15.42 -9.58,-18.42 -6.37,-3 -19.27,-4.51 -38.68,-4.51l-232.97 0 18.31 -84.32 270.41 0c38.27,0 65.03,3.69 80.28,11.05 15.26,7.37 22.88,21.97 22.88,43.8 0,12.55 -1.94,27.56 -5.83,45.03l-59.06 271zm420.17 0c-4.44,21.29 -9.84,38.35 -16.23,51.17 -6.37,12.83 -14.69,22.93 -24.95,30.29 -10.27,7.37 -23.44,12.28 -39.53,14.74 -16.08,2.46 -36.05,3.69 -59.9,3.69l-232.14 0 18.31 -85.15 193.86 0c12.76,0 22.88,-0.55 30.37,-1.63 7.49,-1.1 13.45,-3.42 17.89,-6.97 4.43,-3.54 7.9,-8.45 10.4,-14.74 2.5,-6.27 4.85,-14.87 7.07,-25.78l54.91 -252.18 -106.5 0 18.31 -85.15 208 0 -79.87 371.71zm492.57 0c-4.45,21.29 -9.86,38.35 -16.23,51.17 -6.38,12.83 -14.7,22.93 -24.96,30.29 -10.26,7.37 -23.3,12.28 -39.11,14.74 -15.81,2.46 -35.64,3.69 -59.48,3.69l-178.05 0c-20.53,0 -37.45,-0.96 -50.77,-2.87 -13.3,-1.91 -23.84,-4.91 -31.61,-9 -7.76,-4.1 -13.17,-9.69 -16.23,-16.79 -3.05,-7.1 -4.57,-16.1 -4.57,-27.02 0,-12.55 1.94,-27.29 5.83,-44.21l59.07 -271.82c4.99,-21.28 10.67,-38.47 17.06,-51.58 6.37,-13.1 14.69,-23.2 24.95,-30.29 10.27,-7.1 23.3,-11.87 39.11,-14.33 15.8,-2.45 35.36,-3.69 58.66,-3.69l178.06 0c38.27,0 65.03,3.83 80.28,11.47 15.25,7.64 22.88,22.38 22.88,44.21 0,12.55 -1.94,27.29 -5.83,44.21l-59.06 271.82zm-94.02 -34.38l44.09 -203.05c2.22,-10.92 3.33,-19.92 3.33,-27.01 0,-9.29 -3.19,-15.29 -9.56,-18.02 -6.39,-2.73 -19.29,-4.1 -38.7,-4.1l-100.68 0c-11.64,0 -21.21,0.41 -28.69,1.24 -7.49,0.82 -13.6,2.86 -18.31,6.13 -4.71,3.28 -8.46,8.19 -11.24,14.75 -2.77,6.54 -5.27,15.54 -7.48,27.01l-44.09 203.05c-2.78,13.64 -4.17,22.65 -4.17,27.02 0,9.27 3.19,15.28 9.56,18.01 6.39,2.73 19.29,4.09 38.7,4.09l101.5 0c11.66,0 21.22,-0.41 28.71,-1.23 7.49,-0.81 13.59,-2.86 18.31,-6.14 4.71,-3.28 8.32,-8.19 10.81,-14.73 2.5,-6.56 5.14,-15.56 7.91,-27.02zm514.19 134.27l-366.92 0 72.38 -337.32 102.34 0 -12.48 58.14 129.8 0 -18.31 85.13 -129.8 0 -23.28 108.9 264.58 0 -18.31 85.15zm83.2 -386.45l-366.92 0 18.3 -84.32 366.93 0 -18.31 84.32z"/>
    <path class="fil1" d="M1925.93 966.89c-3.33,14.21 -7.02,25.6 -11.09,34.15 -4.08,8.56 -9.53,15.3 -16.38,20.22 -6.85,4.92 -15.56,8.19 -26.1,9.84 -10.55,1.63 -23.79,2.45 -39.7,2.45l-184.92 0 12.22 -56.83 159.37 0c7.77,0 14.15,-0.27 19.16,-0.81 4.99,-0.55 9.06,-1.92 12.21,-4.1 3.14,-2.18 5.55,-5.46 7.22,-9.83 1.66,-4.38 3.42,-10.39 5.27,-18.04l1.67 -7.09c1.85,-9.12 2.78,-15.31 2.78,-18.59 0,-9.47 -6.3,-14.2 -18.88,-14.2l-97.73 0c-19.99,0 -35.72,-4.19 -47.2,-12.58 -11.47,-8.37 -17.22,-19.67 -17.22,-33.87 0,-1.82 0.09,-3.55 0.28,-5.19 0.18,-1.64 0.46,-3.37 0.83,-5.19l13.89 -62.84c3.33,-14.21 7.13,-25.68 11.39,-34.42 4.25,-8.75 9.81,-15.49 16.66,-20.22 6.83,-4.74 15.54,-7.92 26.09,-9.56 10.54,-1.64 23.6,-2.45 39.15,-2.45l184.9 0 -12.21 56.82 -158.81 0c-7.78,0 -14.16,0.27 -19.17,0.82 -4.99,0.55 -9.06,1.91 -12.21,4.1 -3.14,2.18 -5.64,5.46 -7.5,9.84 -1.84,4.36 -3.52,10.37 -4.99,18.02l-1.67 7.11c-1.85,9.1 -2.78,15.11 -2.78,18.02 0,6.21 2.23,10.2 6.67,12.03 4.44,1.82 13.14,2.73 26.09,2.73l92.75 0c35.53,0 53.29,16.39 53.29,49.18 0,6.19 -0.55,12.2 -1.66,18.02l-11.67 52.46zm98.29 66.66l-68.3 0 67.75 -314.18 68.29 0 -67.74 314.18zm322.05 0l-79.4 0 -70.53 -209.27 -42.75 209.27 -62.74 0 67.74 -315.81 68.85 0 76.08 225.66 47.75 -225.66 62.75 0 -67.75 315.81zm245.43 0l-2.22 -46.99 -107.17 0 -23.32 46.99 -69.97 0 154.93 -314.18 98.84 0 18.87 314.18 -69.96 0zm-81.06 -103.26l76.07 0 -6.11 -139.89 -69.96 139.89zm446.99 103.26l-67.75 0 17.21 -79.77c0.75,-4 1.4,-7.46 1.94,-10.38 0.56,-2.92 0.84,-5.29 0.84,-7.1 0,-6.19 -2.13,-10.29 -6.39,-12.31 -4.26,-1.99 -12.86,-3 -25.81,-3l-86.63 0 -24.43 112.56 -68.3 0 48.86 -225.11 68.31 0 -12.23 55.73 86.63 0c7.78,0 14.16,-0.27 19.15,-0.82 5.01,-0.55 9.08,-1.91 12.23,-4.1 3.14,-2.18 5.54,-5.46 7.22,-9.84 1.66,-4.36 3.42,-10.38 5.27,-18.02l5 -22.95c0.73,-4.01 1.38,-7.47 1.94,-10.39 0.56,-2.91 0.83,-5.27 0.83,-7.1 0,-6.56 -2.22,-10.75 -6.66,-12.57 -4.44,-1.81 -13.14,-2.73 -26.1,-2.73l-154.92 0 12.21 -56.28 180.47 0c13.32,0 24.43,0.64 33.31,1.91 8.88,1.28 16.01,3.28 21.39,6.02 5.36,2.73 9.06,6.46 11.09,11.19 2.05,4.74 3.06,10.57 3.06,17.49 0,8.38 -1.29,18.39 -3.88,30.06l-15 68.3c-5.55,25.49 -16.66,38.24 -33.32,38.24 12.22,2.91 18.33,11.48 18.33,25.68 0,4.01 -0.55,8.39 -1.67,13.11l-22.2 102.18zm461.98 0l-180.46 0c-25.55,0 -43.32,-2.45 -53.31,-7.37 -10,-4.92 -15,-14.84 -15,-29.78 0,-8.38 1.3,-18.21 3.89,-29.51l38.87 -180.85c3.33,-14.58 7.12,-26.23 11.38,-34.98 4.26,-8.74 9.91,-15.48 16.94,-20.21 7.04,-4.74 15.82,-7.83 26.38,-9.3 10.55,-1.45 23.6,-2.18 39.14,-2.18l179.91 0 -12.21 56.28 -154.93 0c-8.88,0 -15.82,0.46 -20.82,1.36 -5,0.92 -8.98,2.56 -11.94,4.93 -2.96,2.36 -5.18,5.64 -6.66,9.83 -1.48,4.19 -2.96,9.75 -4.44,16.67l-28.88 135.5c-1.85,9.12 -2.78,15.12 -2.78,18.04 0,6.19 2.13,10.2 6.39,12.01 4.26,1.83 12.86,2.73 25.82,2.73l86.62 0 16.11 -72.66 -97.17 0 12.21 -56.83 165.47 0 -40.53 186.32zm293.74 0l-67.75 0 17.21 -79.77c0.75,-4 1.4,-7.46 1.94,-10.38 0.56,-2.92 0.84,-5.29 0.84,-7.1 0,-6.19 -2.13,-10.29 -6.39,-12.31 -4.26,-1.99 -12.86,-3 -25.81,-3l-86.63 0 -24.43 112.56 -68.3 0 48.86 -225.11 68.31 0 -12.23 55.73 86.63 0c7.78,0 14.16,-0.27 19.15,-0.82 5.01,-0.55 9.08,-1.91 12.23,-4.1 3.14,-2.18 5.55,-5.46 7.22,-9.84 1.66,-4.36 3.42,-10.38 5.27,-18.02l5 -22.95c0.73,-4.01 1.38,-7.47 1.94,-10.39 0.56,-2.91 0.84,-5.27 0.84,-7.1 0,-6.56 -2.23,-10.75 -6.67,-12.57 -4.44,-1.81 -13.14,-2.73 -26.09,-2.73l-154.93 0 12.21 -56.28 180.47 0c13.32,0 24.43,0.64 33.31,1.91 8.88,1.28 16.01,3.28 21.39,6.02 5.36,2.73 9.06,6.46 11.09,11.19 2.05,4.74 3.06,10.57 3.06,17.49 0,8.38 -1.29,18.39 -3.88,30.06l-15 68.3c-5.55,25.49 -16.66,38.24 -33.31,38.24 12.21,2.91 18.33,11.48 18.33,25.68 0,4.01 -0.56,8.39 -1.68,13.11l-22.2 102.18zm342.6 -66.66c-2.96,14.21 -6.57,25.6 -10.83,34.15 -4.26,8.56 -9.81,15.3 -16.66,20.22 -6.85,4.92 -15.54,8.19 -26.09,9.84 -10.56,1.63 -23.79,2.45 -39.71,2.45l-118.82 0c-13.7,0 -24.99,-0.63 -33.88,-1.9 -8.89,-1.28 -15.91,-3.28 -21.1,-6.02 -5.18,-2.73 -8.79,-6.47 -10.83,-11.2 -2.03,-4.74 -3.05,-10.75 -3.05,-18.03 0,-8.38 1.3,-18.21 3.89,-29.51l39.42 -181.4c3.33,-14.21 7.13,-25.68 11.39,-34.43 4.26,-8.74 9.81,-15.48 16.65,-20.21 6.85,-4.74 15.55,-7.93 26.1,-9.57 10.55,-1.63 23.6,-2.46 39.14,-2.46l118.83 0c25.55,0 43.41,2.55 53.59,7.66 10.18,5.09 15.27,14.93 15.27,29.5 0,8.38 -1.3,18.21 -3.89,29.51l-39.42 181.4zm-62.74 -22.95l29.42 -135.5c1.48,-7.29 2.22,-13.3 2.22,-18.04 0,-6.19 -2.12,-10.2 -6.38,-12.02 -4.26,-1.81 -12.87,-2.73 -25.82,-2.73l-67.19 0c-7.78,0 -14.16,0.28 -19.16,0.83 -5,0.53 -9.06,1.9 -12.22,4.09 -3.15,2.19 -5.64,5.47 -7.49,9.83 -1.85,4.38 -3.51,10.38 -5,18.04l-29.43 135.5c-1.84,9.12 -2.77,15.12 -2.77,18.04 0,6.19 2.12,10.2 6.38,12.01 4.26,1.83 12.86,2.73 25.82,2.73l67.75 0c7.78,0 14.16,-0.27 19.15,-0.81 5.01,-0.55 9.07,-1.92 12.21,-4.1 3.15,-2.18 5.56,-5.46 7.22,-9.83 1.68,-4.38 3.43,-10.39 5.29,-18.04zm391.46 22.95c-2.96,14.21 -6.57,25.6 -10.83,34.15 -4.26,8.56 -9.81,15.3 -16.66,20.22 -6.85,4.92 -15.54,8.19 -26.09,9.84 -10.56,1.63 -23.79,2.45 -39.7,2.45l-118.84 0c-13.69,0 -24.98,-0.63 -33.86,-1.9 -8.9,-1.28 -15.93,-3.37 -21.11,-6.29 -5.18,-2.92 -8.79,-6.74 -10.83,-11.48 -2.03,-4.74 -3.05,-10.56 -3.05,-17.48 0,-8.38 1.3,-18.21 3.89,-29.51l53.86 -248.07 68.29 0 -48.86 225.12c-1.85,9.12 -2.77,15.12 -2.77,18.04 0,6.19 2.12,10.2 6.38,12.01 4.26,1.83 12.87,2.73 25.82,2.73l67.75 0c7.76,0 14.15,-0.27 19.15,-0.81 4.99,-0.55 9.07,-1.92 12.22,-4.1 3.14,-2.18 5.56,-5.46 7.22,-9.83 1.67,-4.38 3.42,-10.39 5.28,-18.04l48.86 -225.12 67.73 0 -53.85 248.07zm328.17 -112.55c-3.34,14.2 -7.04,25.58 -11.11,34.14 -4.07,8.57 -9.53,15.31 -16.38,20.22 -6.85,4.92 -15.55,8.2 -26.1,9.83 -10.55,1.65 -23.79,2.46 -39.7,2.46l-112.16 0 -24.44 112.56 -68.29 0 48.86 -225.11 68.3 0 -12.22 55.73 86.62 0c7.78,0 14.16,-0.27 19.16,-0.82 5,-0.55 9.07,-1.91 12.22,-4.1 3.15,-2.18 5.55,-5.46 7.22,-9.84 1.66,-4.36 3.43,-10.38 5.27,-18.02l5 -22.95c0.74,-4.01 1.39,-7.47 1.94,-10.39 0.56,-2.91 0.84,-5.27 0.84,-7.1 0,-6.19 -2.14,-10.29 -6.39,-12.29 -4.26,-2 -12.87,-3.01 -25.82,-3.01l-155.48 0 12.21 -56.28 180.47 0c25.54,0 43.41,2.46 53.59,7.38 10.18,4.91 15.26,14.66 15.26,29.23 0,8.38 -1.29,18.39 -3.88,30.06l-14.99 68.3z"/>
   </g>
   <path class="fil4" d="M14.99 1518.11l17.18 -76.05 -39.28 -108.49 46.25 0 24.13 72.78 57.02 -72.78 44.2 0 -88.12 108.49 -17.16 76.05 -44.22 0zm155.33 0c-9.89,0 -17.01,-1.63 -21.39,-4.91 -4.36,-3.28 -6.54,-8.26 -6.54,-15 0,-3.44 0.59,-7.52 1.74,-12.25l27.07 -120.22c2.52,-10.9 6.78,-18.99 12.8,-24.24 5.99,-5.28 15.29,-7.92 27.9,-7.92l98.03 0c9.89,0 16.96,1.63 21.22,4.91 4.28,3.26 6.41,8.35 6.41,15.25 0,1.84 -0.14,3.74 -0.44,5.74 -0.29,1.99 -0.63,4.08 -1.03,6.26l-27.04 120.22c-2.52,10.9 -6.83,18.99 -12.94,24.25 -6.1,5.27 -15.37,7.91 -27.78,7.91l-98.01 0zm118.37 -137.93c0.2,-0.9 0.34,-1.72 0.44,-2.46 0.1,-0.71 0.15,-1.35 0.15,-1.9 0,-4.17 -3.4,-6.26 -10.18,-6.26l-54.97 0c-3.89,0 -6.66,0.71 -8.29,2.18 -1.64,1.44 -2.97,4.26 -3.94,8.44l-20.93 91.85c-0.39,1.84 -0.59,3.01 -0.59,3.56 0,3.8 2.82,5.73 8.45,5.73l54.96 0c4.65,0 7.96,-0.73 9.89,-2.2 1.93,-1.45 3.3,-3.81 4.06,-7.09l20.95 -91.85zm76.8 137.93c-10.09,0 -17.28,-1.63 -21.54,-4.91 -4.26,-3.28 -6.39,-8.35 -6.39,-15.25 0,-1.84 0.1,-3.74 0.27,-5.74 0.2,-1.99 0.59,-4.08 1.18,-6.26l34.31 -152.38 44.22 0 -31.13 137.93c-0.56,2.18 -0.86,3.81 -0.86,4.91 0,2 0.66,3.3 2.03,3.95 1.35,0.64 3.58,0.96 6.68,0.96l58.18 0c3.89,0 6.7,-0.6 8.44,-1.79 1.74,-1.17 3.11,-3.85 4.06,-8.03l31.13 -137.93 42.46 0 -34.31 152.38c-2.52,10.9 -6.85,18.99 -12.95,24.25 -6.11,5.27 -15.36,7.91 -27.77,7.91l-98.01 0zm280.65 0l13.38 -60.25c0.2,-0.9 0.35,-1.68 0.44,-2.32 0.1,-0.62 0.15,-1.21 0.15,-1.76 0,-2.92 -2.72,-4.36 -8.15,-4.36l-63.7 0 -15.42 68.69 -44.2 0 30.55 -134.93 44.19 0 -8.15 35.71 60.5 0c4.28,0 7.15,-0.64 8.59,-1.9 1.44,-1.29 2.67,-3.83 3.65,-7.64l6.97 -29.98c0.2,-0.91 0.34,-1.74 0.44,-2.45 0.1,-0.73 0.15,-1.38 0.15,-1.93 0,-2.17 -0.69,-3.62 -2.06,-4.35 -1.34,-0.71 -3.67,-1.08 -6.97,-1.08l-104.43 0 8.15 -35.99 125.08 0c10.08,0 17.35,1.68 21.81,5.05 4.45,3.35 6.7,8.49 6.7,15.39 0,1.65 -0.14,3.37 -0.44,5.18 -0.29,1.81 -0.63,3.72 -1.03,5.74l-9 40.06c-2.16,9.45 -6.02,16.13 -11.65,20.03 -5.63,3.92 -11.82,6.23 -18.6,6.94 6.19,0.37 11.43,1.7 15.69,3.97 4.28,2.27 6.41,6.31 6.41,12.13 0,0.9 0,1.86 0,2.85 0,1.01 -0.2,2.04 -0.59,3.14l-14.24 64.06 -44.22 0zm154.44 0l30.54 -134.93 45.67 0 -6.97 29.98 72.41 0 -6.68 29.45 -72.44 0 -8.71 38.71 100.34 0 -8.15 36.79 -146.01 0zm33.46 -148.55l8.15 -35.99 146 0 -8.15 35.99 -146 0zm269.32 148.55l-27.93 -74.68 -62.23 74.68 -47.11 0 84.92 -98.14 -38.4 -86.4 47.99 0 27.36 68.14 58.18 -68.14 45.64 0 -79.1 89.68 39.55 94.86 -48.87 0zm125.96 -59.43l-13.39 59.43 -44.2 0 30.52 -134.93 44.22 0 -9.59 41.97 60.79 0c3.67,0 6.24,-0.71 7.71,-2.18 1.44,-1.44 2.67,-4.26 3.62,-8.44l8.44 -36.26c0.4,-1.81 0.59,-3.09 0.59,-3.8 0,-2.02 -0.64,-3.33 -1.91,-3.97 -1.25,-0.62 -3.23,-0.94 -5.94,-0.94l-105.02 0 8.15 -35.99 123.32 0c9.89,0 16.98,1.63 21.24,4.91 4.26,3.26 6.39,8.35 6.39,15.25 0,1.84 -0.15,3.7 -0.42,5.6 -0.29,1.9 -0.63,4.04 -1.02,6.4l-13.68 60.8c-2.52,10.89 -6.78,18.99 -12.8,24.24 -6,5.28 -15.3,7.91 -27.9,7.91l-79.12 0zm244.31 59.43l13.38 -60.25c0.2,-0.9 0.35,-1.68 0.44,-2.32 0.1,-0.62 0.15,-1.21 0.15,-1.76 0,-2.92 -2.71,-4.36 -8.15,-4.36l-63.7 0 -15.42 68.69 -44.19 0 30.54 -134.93 44.19 0 -8.15 35.71 60.5 0c4.28,0 7.15,-0.64 8.59,-1.9 1.44,-1.29 2.67,-3.83 3.65,-7.64l6.97 -29.98c0.2,-0.91 0.34,-1.74 0.44,-2.45 0.1,-0.73 0.15,-1.38 0.15,-1.93 0,-2.17 -0.69,-3.62 -2.06,-4.35 -1.34,-0.71 -3.67,-1.08 -6.97,-1.08l-104.43 0 8.15 -35.99 125.08 0c10.09,0 17.35,1.68 21.81,5.05 4.45,3.35 6.7,8.49 6.7,15.39 0,1.65 -0.14,3.37 -0.44,5.18 -0.29,1.81 -0.63,3.72 -1.02,5.74l-9.01 40.06c-2.15,9.45 -6.02,16.13 -11.65,20.03 -5.63,3.92 -11.82,6.23 -18.6,6.94 6.19,0.37 11.43,1.7 15.69,3.97 4.28,2.27 6.41,6.31 6.41,12.13 0,0.9 0,1.86 0,2.85 0,1.01 -0.2,2.04 -0.59,3.14l-14.24 64.06 -44.22 0zm74.17 0l30.55 -134.93 45.66 0 -6.97 29.98 72.41 0 -6.68 29.45 -72.44 0 -8.71 38.71 100.34 0 -8.15 36.79 -146.01 0zm33.46 -148.55l8.15 -35.99 146 0 -8.15 35.99 -146 0zm143.97 148.55l8.15 -35.99 104.99 0c3.5,0 6.07,-0.64 7.71,-1.9 1.66,-1.26 2.86,-3.62 3.64,-7.09l5.8 -25.62c0.2,-0.73 0.3,-1.72 0.3,-3 0,-3.28 -2.52,-4.91 -7.57,-4.91l-77.65 0c-7.95,0 -13.7,-1.58 -17.3,-4.77 -3.6,-3.19 -5.38,-7.68 -5.38,-13.48 0,-2.18 0.29,-4.82 0.88,-7.92l10.74 -47.7c2.52,-10.9 6.8,-18.99 12.8,-24.24 6.02,-5.28 15.42,-7.92 28.22,-7.92l122.46 0 -7.86 35.16 -104.42 0c-3.11,0 -5.34,0.64 -6.68,1.91 -1.37,1.28 -2.43,3.55 -3.21,6.81l-5.53 24.26c-0.2,0.74 -0.34,1.38 -0.44,1.91 -0.07,0.55 -0.12,1.1 -0.12,1.65 0,2.7 2.13,4.08 6.38,4.08l78.83 0c8.15,0 14,1.63 17.6,4.91 3.57,3.26 5.38,7.82 5.38,13.62 0,2.36 -0.29,4.91 -0.88,7.64l-11.33 50.43c-2.52,10.9 -6.8,18.99 -12.8,24.25 -6.02,5.27 -15.32,7.91 -27.92,7.91l-124.79 0zm187.9 0l8.15 -35.99 104.99 0c3.5,0 6.07,-0.64 7.71,-1.9 1.66,-1.26 2.86,-3.62 3.64,-7.09l5.8 -25.62c0.2,-0.73 0.3,-1.72 0.3,-3 0,-3.28 -2.52,-4.91 -7.57,-4.91l-77.65 0c-7.95,0 -13.7,-1.58 -17.3,-4.77 -3.6,-3.19 -5.38,-7.68 -5.38,-13.48 0,-2.18 0.29,-4.82 0.88,-7.92l10.74 -47.7c2.52,-10.9 6.8,-18.99 12.8,-24.24 6.02,-5.28 15.42,-7.92 28.22,-7.92l122.46 0 -7.86 35.16 -104.42 0c-3.11,0 -5.34,0.64 -6.68,1.91 -1.37,1.28 -2.43,3.55 -3.21,6.81l-5.53 24.26c-0.2,0.74 -0.34,1.38 -0.44,1.91 -0.07,0.55 -0.12,1.1 -0.12,1.65 0,2.7 2.13,4.08 6.38,4.08l78.83 0c8.15,0 14,1.63 17.6,4.91 3.57,3.26 5.38,7.82 5.38,13.62 0,2.36 -0.29,4.91 -0.88,7.64l-11.33 50.43c-2.52,10.9 -6.8,18.99 -12.8,24.25 -6.02,5.27 -15.32,7.91 -27.92,7.91l-124.79 0zm326.93 -59.43l-13.39 59.43 -44.19 0 30.51 -134.93 44.23 0 -9.6 41.97 60.79 0c3.67,0 6.24,-0.71 7.71,-2.18 1.44,-1.44 2.67,-4.26 3.62,-8.44l8.45 -36.26c0.39,-1.81 0.58,-3.09 0.58,-3.8 0,-2.02 -0.63,-3.33 -1.91,-3.97 -1.24,-0.62 -3.23,-0.94 -5.94,-0.94l-105.01 0 8.15 -35.99 123.31 0c9.89,0 16.99,1.63 21.24,4.91 4.26,3.26 6.39,8.35 6.39,15.25 0,1.84 -0.14,3.7 -0.41,5.6 -0.3,1.9 -0.64,4.04 -1.03,6.4l-13.68 60.8c-2.52,10.89 -6.78,18.99 -12.8,24.24 -6,5.28 -15.3,7.91 -27.9,7.91l-79.12 0zm244.31 59.43l13.39 -60.25c0.19,-0.9 0.34,-1.68 0.44,-2.32 0.09,-0.62 0.14,-1.21 0.14,-1.76 0,-2.92 -2.71,-4.36 -8.15,-4.36l-63.7 0 -15.42 68.69 -44.19 0 30.54 -134.93 44.2 0 -8.15 35.71 60.49 0c4.29,0 7.15,-0.64 8.59,-1.9 1.45,-1.29 2.67,-3.83 3.65,-7.64l6.97 -29.98c0.2,-0.91 0.35,-1.74 0.44,-2.45 0.1,-0.73 0.15,-1.38 0.15,-1.93 0,-2.17 -0.68,-3.62 -2.05,-4.35 -1.35,-0.71 -3.68,-1.08 -6.98,-1.08l-104.42 0 8.15 -35.99 125.08 0c10.08,0 17.35,1.68 21.8,5.05 4.45,3.35 6.71,8.49 6.71,15.39 0,1.65 -0.15,3.37 -0.44,5.18 -0.3,1.81 -0.64,3.72 -1.03,5.74l-9.01 40.06c-2.15,9.45 -6.02,16.13 -11.65,20.03 -5.63,3.92 -11.82,6.23 -18.6,6.94 6.2,0.37 11.43,1.7 15.69,3.97 4.28,2.27 6.41,6.31 6.41,12.13 0,0.9 0,1.86 0,2.85 0,1.01 -0.19,2.04 -0.59,3.14l-14.24 64.06 -44.22 0zm76.21 0l41.6 -184.54 44.2 0 -41.58 184.54 -44.22 0zm220.18 0l-74.45 -121.03 -27.33 121.03 -41.02 0 41.58 -184.54 41.6 0 64.56 110.11 24.74 -110.11 41.29 0 -41.58 184.54 -29.39 0zm145.14 0l-44.22 0 33.46 -148.28 -47.7 0 8.15 -36.26 139.88 0 -8.12 36.26 -47.99 0 -33.46 148.28zm72.71 0l41.61 -184.54 44.19 0 -41.58 184.54 -44.22 0zm220.18 0l-74.44 -121.03 -27.34 121.03 -41.02 0 41.58 -184.54 41.61 0 64.56 110.11 24.74 -110.11 41.28 0 -41.58 184.54 -29.39 0zm94.25 0c-9.89,0 -17.01,-1.63 -21.39,-4.91 -4.36,-3.28 -6.54,-8.26 -6.54,-15 0,-3.44 0.59,-7.52 1.74,-12.25l27.07 -120.22c2.52,-10.9 6.78,-18.99 12.8,-24.24 5.99,-5.28 15.29,-7.92 27.89,-7.92l121.58 0 -8.12 36.79 -102.39 0c-3.87,0 -6.54,0.64 -8.01,1.93 -1.44,1.26 -2.66,3.99 -3.62,8.16l-21.24 94.04c-0.39,1.83 -0.59,3 -0.59,3.55 0,1.81 0.59,3.05 1.76,3.67 1.15,0.64 3.19,0.96 6.1,0.96l63.11 0 9.6 -41.97 -38.96 0 6.68 -29.72 80.27 0 -24.13 107.13 -123.61 0zm234.71 0l8.15 -35.99 104.99 0c3.5,0 6.07,-0.64 7.71,-1.9 1.66,-1.26 2.86,-3.62 3.64,-7.09l5.8 -25.62c0.2,-0.73 0.3,-1.72 0.3,-3 0,-3.28 -2.52,-4.91 -7.56,-4.91l-77.66 0c-7.95,0 -13.7,-1.58 -17.3,-4.77 -3.6,-3.19 -5.38,-7.68 -5.38,-13.48 0,-2.18 0.29,-4.82 0.88,-7.92l10.74 -47.7c2.52,-10.9 6.81,-18.99 12.8,-24.24 6.02,-5.28 15.42,-7.92 28.22,-7.92l122.46 0 -7.86 35.16 -104.42 0c-3.11,0 -5.34,0.64 -6.68,1.91 -1.37,1.28 -2.42,3.55 -3.21,6.81l-5.53 24.26c-0.19,0.74 -0.34,1.38 -0.44,1.91 -0.07,0.55 -0.12,1.1 -0.12,1.65 0,2.7 2.13,4.08 6.39,4.08l78.82 0c8.15,0 14,1.63 17.6,4.91 3.57,3.26 5.38,7.82 5.38,13.62 0,2.36 -0.29,4.91 -0.88,7.64l-11.33 50.43c-2.52,10.9 -6.8,18.99 -12.8,24.25 -6.02,5.27 -15.32,7.91 -27.92,7.91l-124.79 0zm221.06 0c-9.88,0 -17.01,-1.63 -21.39,-4.91 -4.35,-3.28 -6.53,-8.26 -6.53,-15 0,-3.44 0.59,-7.52 1.74,-12.25l27.06 -120.22c2.52,-10.9 6.78,-18.99 12.8,-24.24 6,-5.28 15.3,-7.92 27.9,-7.92l98.04 0c9.89,0 16.96,1.63 21.22,4.91 4.28,3.26 6.41,8.35 6.41,15.25 0,1.84 -0.15,3.74 -0.44,5.74 -0.3,1.99 -0.64,4.08 -1.03,6.26l-27.04 120.22c-2.52,10.9 -6.83,18.99 -12.95,24.25 -6.09,5.27 -15.37,7.91 -27.77,7.91l-98.02 0zm118.38 -137.93c0.19,-0.9 0.34,-1.72 0.44,-2.46 0.1,-0.71 0.14,-1.35 0.14,-1.9 0,-4.17 -3.4,-6.26 -10.18,-6.26l-54.96 0c-3.89,0 -6.66,0.71 -8.3,2.18 -1.64,1.44 -2.96,4.26 -3.94,8.44l-20.92 91.85c-0.39,1.84 -0.59,3.01 -0.59,3.56 0,3.8 2.82,5.73 8.44,5.73l54.97 0c4.65,0 7.95,-0.73 9.89,-2.2 1.93,-1.45 3.3,-3.81 4.06,-7.09l20.95 -91.85zm175.39 137.93l-132.05 0 41.58 -184.54 44.22 0 -33.16 147.2 87.83 0 -8.42 37.34zm58.17 0c-10.08,0 -17.27,-1.63 -21.53,-4.91 -4.26,-3.28 -6.39,-8.35 -6.39,-15.25 0,-1.84 0.1,-3.74 0.27,-5.74 0.2,-1.99 0.59,-4.08 1.17,-6.26l34.31 -152.38 44.23 0 -31.13 137.93c-0.57,2.18 -0.86,3.81 -0.86,4.91 0,2 0.66,3.3 2.03,3.95 1.35,0.64 3.58,0.96 6.68,0.96l58.17 0c3.9,0 6.71,-0.6 8.45,-1.79 1.74,-1.17 3.11,-3.85 4.06,-8.03l31.13 -137.93 42.46 0 -34.31 152.38c-2.52,10.9 -6.85,18.99 -12.95,24.25 -6.12,5.27 -15.37,7.91 -27.77,7.91l-98.02 0zm246.34 0l-44.22 0 33.46 -148.28 -47.7 0 8.15 -36.26 139.88 0 -8.12 36.26 -47.99 0 -33.46 148.28zm72.71 0l41.61 -184.54 44.19 0 -41.58 184.54 -44.22 0zm109.96 0c-9.89,0 -17.01,-1.63 -21.39,-4.91 -4.36,-3.28 -6.54,-8.26 -6.54,-15 0,-3.44 0.59,-7.52 1.74,-12.25l27.07 -120.22c2.52,-10.9 6.78,-18.99 12.8,-24.24 5.99,-5.28 15.29,-7.92 27.9,-7.92l98.03 0c9.89,0 16.96,1.63 21.22,4.91 4.28,3.26 6.41,8.35 6.41,15.25 0,1.84 -0.14,3.74 -0.44,5.74 -0.29,1.99 -0.63,4.08 -1.03,6.26l-27.04 120.22c-2.52,10.9 -6.83,18.99 -12.94,24.25 -6.1,5.27 -15.37,7.91 -27.78,7.91l-98.01 0zm118.37 -137.93c0.2,-0.9 0.34,-1.72 0.44,-2.46 0.1,-0.71 0.15,-1.35 0.15,-1.9 0,-4.17 -3.4,-6.26 -10.18,-6.26l-54.97 0c-3.89,0 -6.65,0.71 -8.29,2.18 -1.64,1.44 -2.96,4.26 -3.94,8.44l-20.93 91.85c-0.39,1.84 -0.58,3.01 -0.58,3.56 0,3.8 2.81,5.73 8.44,5.73l54.96 0c4.65,0 7.96,-0.73 9.89,-2.2 1.93,-1.45 3.3,-3.81 4.06,-7.09l20.95 -91.85zm186.14 137.93l-74.45 -121.03 -27.33 121.03 -41.02 0 41.58 -184.54 41.6 0 64.56 110.11 24.75 -110.11 41.28 0 -41.58 184.54 -29.39 0z"/>
  </g>
 </g>
</svg>
